<svg xmlns="http://www.w3.org/2000/svg" width="15" height="18" viewBox="0 0 15 18">
  <g id="Group_58369" data-name="Group 58369" transform="translate(-53 -350.999)">
    <path id="Path_136470" data-name="Path 136470" d="M15.375,9H9V8.42a3.171,3.171,0,0,1,5.945-1.535,1.125,1.125,0,1,0,1.967-1.092h0A5.421,5.421,0,0,0,6.75,8.42V9.455a4.126,4.126,0,0,0-2.25,3.67v3.749A4.129,4.129,0,0,0,8.625,21h6.75A4.129,4.129,0,0,0,19.5,16.874V13.125A4.129,4.129,0,0,0,15.375,9Zm1.875,7.874a1.874,1.874,0,0,1-1.875,1.875H8.625A1.874,1.874,0,0,1,6.75,16.874V13.125A1.874,1.874,0,0,1,8.625,11.25h6.75a1.874,1.874,0,0,1,1.875,1.875Z" transform="translate(48.5 348)" fill="#458df6"/>
    <path id="Path_136471" data-name="Path 136471" d="M11.625,13.5h.75A1.125,1.125,0,0,1,13.5,14.625h0a1.125,1.125,0,0,1-1.125,1.125h-.75A1.125,1.125,0,0,1,10.5,14.625h0A1.125,1.125,0,0,1,11.625,13.5Z" transform="translate(48.5 348)" fill="#458df6"/>
  </g>
</svg>
