<svg xmlns="http://www.w3.org/2000/svg" width="13.001" height="18" viewBox="0 0 13.001 18">
  <g id="Group_58370" data-name="Group 58370" transform="translate(-54 -286)">
    <path id="Path_136472" data-name="Path 136472" d="M-197.445-3.487a6.35,6.35,0,0,0-6.055,6.2v.163A1.175,1.175,0,0,0-202.281,4h0a1.175,1.175,0,0,0,1.219-1.125V2.667a3.979,3.979,0,0,1,3.656-3.9,3.994,3.994,0,0,1,4.448,3.366,3.213,3.213,0,0,1,.02.367v.375A1.175,1.175,0,0,0-191.719,4h0A1.175,1.175,0,0,0-190.5,2.875V2.5a6.274,6.274,0,0,0-6.515-6C-197.158-3.5-197.3-3.495-197.445-3.487Z" transform="translate(257.501 300)" fill="#458df6"/>
    <path id="Path_136473" data-name="Path 136473" d="M-197-5a4.7,4.7,0,0,0,4.875-4.5A4.7,4.7,0,0,0-197-14a4.7,4.7,0,0,0-4.875,4.5A4.7,4.7,0,0,0-197-5Zm0-6.75a2.349,2.349,0,0,1,2.437,2.25A2.349,2.349,0,0,1-197-7.25a2.349,2.349,0,0,1-2.437-2.25A2.349,2.349,0,0,1-197-11.75Z" transform="translate(257.501 300)" fill="#458df6"/>
  </g>
</svg>
